<svg width="100" height="29" viewBox="0 0 100 29" fill="none" xmlns="http://www.w3.org/2000/svg">
<path fill-rule="evenodd" clip-rule="evenodd" d="M83.4247 23.7374H78.0197C77.9455 23.7374 77.8853 23.6772 77.8853 23.603V23.0921C77.8853 23.0444 77.9106 23.0003 77.9517 22.9761L79.1222 22.289V5.48003L77.7427 4.76472C77.6982 4.74161 77.6702 4.69558 77.6702 4.64537V4.13445C77.6702 4.0602 77.7304 4 77.8046 4H82.2415C82.3158 4 82.376 4.0602 82.376 4.13445V16.7124L86.0183 12.1855L84.8093 11.4842C84.7678 11.4602 84.7423 11.4159 84.7423 11.3679V10.857C84.7423 10.7828 84.8025 10.7226 84.8768 10.7226H89.5019C89.5761 10.7226 89.6363 10.7828 89.6363 10.857V11.3679C89.6363 11.4205 89.6056 11.4683 89.5578 11.4902L87.7031 12.3381L85.1475 15.3892L89.0881 22.2919L90.3975 22.9728C90.442 22.9959 90.4699 23.0419 90.4699 23.0921V23.603C90.4699 23.6772 90.4097 23.7374 90.3355 23.7374H84.6616C84.5874 23.7374 84.5272 23.6772 84.5272 23.603V23.0921C84.5272 23.0474 84.5494 23.0057 84.5864 22.9807L85.4779 22.3783L82.376 16.9564V22.2908L83.495 22.9775C83.5349 23.0019 83.5591 23.0453 83.5591 23.0921V23.603C83.5591 23.6772 83.4989 23.7374 83.4247 23.7374Z" fill="#ffffff"/>
<path fill-rule="evenodd" clip-rule="evenodd" d="M93.3043 16.9106L99.8623 17.0686C99.8985 17.0695 99.9336 17.0557 99.9595 17.0304C99.9854 17.0051 100 16.9704 100 16.9342V16.2082C100 14.4007 99.5721 12.9423 98.7673 11.9328C97.9594 10.9195 96.7829 10.373 95.3211 10.373C92.1847 10.373 89.8893 13.0943 89.8893 17.0687C89.8893 19.4538 90.4447 21.2037 91.4307 22.3592C92.4193 23.5178 93.8249 24.0601 95.4824 24.0601C96.5564 24.0601 97.4307 23.7773 98.1508 23.2764C98.8692 22.7766 99.4264 22.0652 99.8767 21.2191C99.8891 21.1958 99.8944 21.1693 99.8918 21.143L99.8111 20.3094C99.8045 20.2405 99.7466 20.1879 99.6773 20.1879H99.3008C99.2575 20.1879 99.2168 20.2088 99.1916 20.244C98.1808 21.6538 97.2211 22.3123 96.0202 22.3123C94.8342 22.3123 93.9875 21.5108 93.622 20.2055L93.6218 20.2048C93.4648 19.6552 93.3043 18.5926 93.3043 17.3107V16.9106ZM93.3329 15.7977L96.7455 15.6233C96.7388 15.0193 96.6873 14.0503 96.6131 13.4298C96.5334 12.8999 96.3962 12.4273 96.1619 12.09C95.9328 11.7601 95.6096 11.5562 95.1329 11.5562C94.7004 11.5562 94.3741 11.7633 94.1211 12.1007C93.8654 12.4417 93.6895 12.9106 93.5704 13.4126C93.4473 14.0789 93.3468 15.1586 93.3329 15.7977Z" fill="#ffffff"/>
<path fill-rule="evenodd" clip-rule="evenodd" d="M68.7382 16.6725C69.9669 15.9813 71.5481 15.7385 73.0259 15.7248V13.5729C73.0259 12.9904 72.8705 12.4995 72.5834 12.1568C72.3 11.8186 71.8779 11.6117 71.3122 11.6099C70.377 11.714 69.5286 12.3733 69.0067 13.228L68.339 15.0708C68.3197 15.124 68.2692 15.1594 68.2126 15.1594H67.621C67.5467 15.1594 67.4865 15.0993 67.4865 15.025V11.6099C67.4865 11.5641 67.5099 11.5214 67.5485 11.4967C68.2382 11.0553 69.9033 10.3461 71.6814 10.3461C73.339 10.3461 74.488 10.7059 75.2257 11.2749C75.9673 11.847 76.2796 12.6206 76.2796 13.4116V22.2899L77.4244 22.9768C77.4649 23.0011 77.4897 23.0448 77.4897 23.0921V23.603C77.4897 23.6772 77.4295 23.7374 77.3553 23.7374H73.2411C73.1668 23.7374 73.1066 23.6772 73.1066 23.603V22.4725C72.3129 23.5107 71.2123 24.0332 69.9335 24.0332C69.0676 24.0332 68.2239 23.8273 67.5956 23.27C66.9643 22.7099 66.5723 21.8148 66.5723 20.4837C66.5723 18.5894 67.4623 17.3902 68.7382 16.6725ZM71.2512 22.124C72.0881 22.124 72.7389 21.5656 73.0259 21.0416V16.8327C71.9691 16.8883 71.1921 17.1457 70.6738 17.6276C70.1359 18.1278 69.8529 18.8923 69.8529 19.9997C69.8529 20.8395 69.9808 21.3752 70.2109 21.6961C70.4322 22.0048 70.7653 22.1368 71.2476 22.1241L71.2512 22.124Z" fill="#ffffff"/>
<path d="M58.4078 21.0405C59.0694 21.9851 60.184 22.8232 61.2717 22.8232C61.879 22.8232 62.4042 22.6488 62.7751 22.337C63.1436 22.0274 63.3692 21.5749 63.3692 20.9946C63.3692 20.6624 63.307 20.3915 63.1901 20.1615C63.0731 19.9313 62.8975 19.7345 62.6598 19.5559C62.1793 19.1947 61.4614 18.9184 60.5044 18.5949C59.6632 18.337 58.7994 17.9593 58.1453 17.3121C57.4863 16.6601 57.05 15.7443 57.05 14.4334C57.05 13.2025 57.5003 12.178 58.2585 11.4618C59.0158 10.7463 60.072 10.3461 61.2717 10.3461C62.9914 10.3461 64.1156 10.7836 64.8847 11.1956C64.9284 11.219 64.9557 11.2646 64.9557 11.3141V14.783C64.9557 14.8572 64.8955 14.9174 64.8213 14.9174H64.2835C64.227 14.9174 64.1766 14.8822 64.1572 14.8293L63.5715 13.2318C62.9447 12.322 62.2771 11.7637 61.2053 11.5562C60.5758 11.5584 60.1107 11.7266 59.8044 11.9965C59.4977 12.2667 59.3356 12.6514 59.3356 13.1158C59.3356 13.7558 59.5954 14.1894 60.0213 14.5301C60.4551 14.8772 61.0591 15.126 61.7456 15.3818C62.9034 15.7455 63.8959 16.1627 64.5979 16.83C65.3078 17.5048 65.7086 18.4229 65.7086 19.7577C65.7086 22.0358 64.0093 24.0332 61.1911 24.0332C59.3934 24.0332 57.8666 23.5434 56.9615 23.0771C56.9168 23.0541 56.8886 23.008 56.8886 22.9576V19.1661C56.8886 19.0918 56.9488 19.0316 57.0231 19.0316H57.6147C57.6719 19.0316 57.7229 19.0679 57.7417 19.122L58.4078 21.0405Z" fill="#ffffff"/>
<path fill-rule="evenodd" clip-rule="evenodd" d="M55.6667 17.0686L49.1087 16.9106V17.3107C49.1087 18.5926 49.2692 19.6552 49.4262 20.2048L49.4264 20.2055C49.7919 21.5108 50.6387 22.3123 51.8247 22.3123C53.0255 22.3123 53.9852 21.6538 54.996 20.244C55.0212 20.2088 55.0619 20.1879 55.1053 20.1879H55.4817C55.551 20.1879 55.6089 20.2405 55.6155 20.3094L55.6962 21.143C55.6988 21.1693 55.6935 21.1958 55.6811 21.2191C55.2308 22.0652 54.6736 22.7766 53.9552 23.2764C53.2351 23.7773 52.3608 24.0601 51.2868 24.0601C49.6293 24.0601 48.2237 23.5178 47.2351 22.3592C46.2491 21.2037 45.6937 19.4538 45.6937 17.0687C45.6937 13.0943 47.9892 10.373 51.1255 10.373C52.5873 10.373 53.7638 10.9195 54.5717 11.9328C55.3765 12.9423 55.8044 14.4007 55.8044 16.2082V16.9342C55.8044 16.9704 55.7898 17.0051 55.7639 17.0304C55.738 17.0557 55.7029 17.0695 55.6667 17.0686ZM52.5499 15.6233L49.1373 15.7977C49.1512 15.1585 49.2517 14.0787 49.3748 13.4124C49.4939 12.9105 49.6698 12.4416 49.9255 12.1007C50.1785 11.7633 50.5048 11.5562 50.9373 11.5562C51.4141 11.5562 51.7373 11.7601 51.9663 12.09C52.2006 12.4273 52.3378 12.8997 52.4174 13.4296C52.4917 14.05 52.5432 15.0193 52.5499 15.6233Z" fill="#ffffff"/>
<path fill-rule="evenodd" clip-rule="evenodd" d="M27.5757 22.289L26.4052 22.9761C26.364 23.0003 26.3388 23.0444 26.3388 23.0921V23.603C26.3388 23.6772 26.399 23.7374 26.4732 23.7374H31.8782C31.9524 23.7374 32.0126 23.6772 32.0126 23.603V23.0921C32.0126 23.0453 31.9883 23.0019 31.9485 22.9775L30.8295 22.2908V13.9826C31.0107 13.6433 31.3019 13.2743 31.6566 12.9886C32.022 12.6943 32.4435 12.4973 32.8731 12.4973C33.32 12.4973 33.6279 12.6181 33.8262 12.8337C34.0266 13.0515 34.137 13.3893 34.137 13.8687V22.2917L33.0436 22.9782C33.0044 23.0028 32.9807 23.0458 32.9807 23.0921V23.603C32.9807 23.6772 33.0409 23.7374 33.1151 23.7374H38.4394C38.5136 23.7374 38.5738 23.6772 38.5738 23.603V23.0921C38.5738 23.0453 38.5496 23.0019 38.5097 22.9775L37.3907 22.2908V13.9566C37.5846 13.6042 37.8758 13.2417 38.2267 12.9661C38.5875 12.6826 39.0027 12.4973 39.4343 12.4973C39.8813 12.4973 40.1969 12.6182 40.4022 12.8351C40.6088 13.0534 40.7251 13.3911 40.7251 13.8687V22.2908L39.606 22.9775C39.5662 23.0019 39.5419 23.0453 39.5419 23.0921V23.603C39.5419 23.6772 39.6021 23.7374 39.6763 23.7374H45.0544C45.1287 23.7374 45.1888 23.6772 45.1888 23.603V23.0921C45.1888 23.0444 45.1636 23.0003 45.1225 22.9761L43.9519 22.289V13.4654C43.9519 11.6608 42.4837 10.3999 40.752 10.3999C39.9473 10.3999 39.2823 10.6018 38.6907 10.9973C38.1645 11.3492 37.702 11.8505 37.2511 12.486C36.8469 11.3377 35.7152 10.3999 34.137 10.3999C33.3174 10.3999 32.6583 10.616 32.0833 11.0192C31.6105 11.3508 31.1991 11.8057 30.8026 12.3597V10.857C30.8026 10.7828 30.7424 10.7226 30.6681 10.7226H26.4195C26.3452 10.7226 26.285 10.7828 26.285 10.857V11.3679C26.285 11.4165 26.3112 11.4613 26.3535 11.4851L27.5757 12.1726V22.289Z" fill="#ffffff"/>
<path fill-rule="evenodd" clip-rule="evenodd" d="M17.1111 16.6725C18.3398 15.9813 19.9209 15.7385 21.3988 15.7248V13.5729C21.3988 12.9904 21.2434 12.4995 20.9562 12.1568C20.6728 11.8186 20.2507 11.6117 19.685 11.6099C18.7498 11.714 17.9014 12.3733 17.3795 13.228L16.7118 15.0708C16.6925 15.124 16.642 15.1594 16.5854 15.1594H15.9938C15.9196 15.1594 15.8594 15.0993 15.8594 15.025V11.6099C15.8594 11.5641 15.8827 11.5214 15.9213 11.4967C16.611 11.0553 18.2761 10.3461 20.0542 10.3461C21.7118 10.3461 22.8608 10.7059 23.5985 11.2749C24.3401 11.847 24.6525 12.6206 24.6525 13.4116V22.2899L25.7973 22.9768C25.8378 23.0011 25.8625 23.0448 25.8625 23.0921V23.603C25.8625 23.6772 25.8023 23.7374 25.7281 23.7374H21.6139C21.5396 23.7374 21.4794 23.6772 21.4794 23.603V22.4725C20.6858 23.5107 19.5851 24.0332 18.3064 24.0332C17.4404 24.0332 16.5968 23.8273 15.9685 23.27C15.3371 22.7099 14.9451 21.8148 14.9451 20.4837C14.9451 18.5894 15.8352 17.3902 17.1111 16.6725ZM19.624 22.124C20.461 22.124 21.1117 21.5656 21.3988 21.0416V16.8327C20.3419 16.8883 19.565 17.1457 19.0467 17.6276C18.5088 18.1278 18.2257 18.8923 18.2257 19.9997C18.2257 20.8395 18.3536 21.3752 18.5837 21.6961C18.8051 22.0048 19.1381 22.1368 19.6205 22.1241L19.624 22.124Z" fill="#ffffff"/>
<path fill-rule="evenodd" clip-rule="evenodd" d="M3.19994 7.66691L11.2003 23.824C11.223 23.8698 11.2697 23.8988 11.3208 23.8988H12.7998C12.874 23.8988 12.9342 23.8386 12.9342 23.7643V6.42429L14.6055 5.62721C14.6523 5.6049 14.6821 5.55769 14.6821 5.50586V4.96805C14.6821 4.8938 14.6219 4.8336 14.5476 4.8336H9.86872C9.79447 4.8336 9.73427 4.8938 9.73427 4.96805V5.50586C9.73427 5.55797 9.76439 5.60539 9.81156 5.62755L11.509 6.42485V16.6089L5.63265 4.90771C5.60984 4.86228 5.56334 4.8336 5.5125 4.8336H0.161341C0.087086 4.8336 0.0268909 4.8938 0.0268909 4.96805V5.50586C0.0268909 5.55892 0.058101 5.60702 0.106561 5.62864L1.77476 6.37291V22.1462L0.0772914 22.9435C0.030119 22.9656 0 23.0131 0 23.0652V23.603C0 23.6772 0.0601964 23.7374 0.134452 23.7374H4.84025C4.9145 23.7374 4.9747 23.6772 4.9747 23.603V23.0652C4.9747 23.0131 4.94458 22.9656 4.8974 22.9435L3.19994 22.1462V7.66691Z" fill="#ffffff"/>
</svg>
