<svg viewBox="0 0 446.24 471.14" xmlns="http://www.w3.org/2000/svg" id="ad6fd037-b863-4c18-adb5-fef95fc1af1c"><path style="fill:#999" transform="translate(-416.88 -148.43)" d="M504.54,525.93v.33c0,.44,0,.88,0,1.32s0,.9.08,1.35l0,.38a32.13,32.13,0,0,0,4.46,13.55l.36.57c.14.23.31.46.46.68A31.64,31.64,0,0,0,533.27,558h36.16l22.51-148.68-27.34,5.48L506.54,515.39A32,32,0,0,0,504.54,525.93Z"></path><path style="fill:#999" transform="translate(-416.88 -148.43)" d="M769.53,543a31.94,31.94,0,0,0,2.7-5.7l0-.07c.19-.51.36-1,.51-1.55.06-.2.13-.4.19-.61s.13-.52.2-.78a31.79,31.79,0,0,0-1-18.87L714.05,414.83,639.37,285.5,718.5,148.43h0L850.32,376.66a27.67,27.67,0,0,1,0,26.45L778.83,527h0Z"></path><polygon style="fill:#999" points="215.87 113.11 281.17 0 263.51 0 207.04 97.81 215.87 113.11"></polygon><polygon style="fill:#999" points="168.38 0 150.56 0 159.47 15.43 168.38 0"></polygon><polygon style="fill:#999" points="197.07 80.55 243.57 0 225.91 0 188.24 65.25 197.07 80.55"></polygon><polygon style="fill:#999" points="178.27 47.98 205.97 0 188.31 0 169.44 32.69 178.27 47.98"></polygon><path transform="translate(-416.88 -148.43)" d="M772.79,535.71c.06-.2.13-.4.19-.6s.13-.53.2-.79a31.79,31.79,0,0,0-1-18.87L714.08,414.86l-27.29-5.47L709.3,558.07h36.16a31.59,31.59,0,0,0,23.32-13.93c.15-.22.32-.45.46-.68l.37-.57a32.18,32.18,0,0,0,2.65-5.56l0-.07C772.47,536.75,772.63,536.23,772.79,535.71Z"></path><path transform="translate(-416.88 -148.43)" d="M509.22,543a32.12,32.12,0,0,1-4.46-13.69l0-.38c0-.45-.06-.9-.08-1.35s0-.88,0-1.32v-.33a31.49,31.49,0,0,1,2-10.54l58.05-100.55L639.37,285.5,718.5,148.43H698.05L632.74,261.54l-8.83-15.3,56.48-97.81H660.45L614,229l-8.83-15.3,37.67-65.25H622.85l-27.7,48-8.83-15.29,18.87-32.69H585.25l-8.9,15.42-8.91-15.42H560.2L428.43,376.66a27.74,27.74,0,0,0-.05,26.45L499.92,527Z"></path><polygon points="0 434.09 8.67 434.09 16.29 459 24.54 433.99 31.48 433.99 39.73 459 47.35 434.09 55.81 434.09 43.25 471.14 36.21 471.14 27.91 447.07 19.6 471.14 12.56 471.14 0 434.09"></polygon><polygon points="60.76 434.09 88.5 434.09 88.5 441.29 68.8 441.29 68.8 448.75 86.14 448.75 86.14 455.95 68.8 455.95 68.8 463.68 88.77 463.68 88.77 470.88 60.76 470.88 60.76 434.09"></polygon><path transform="translate(-416.88 -148.43)" d="M512.84,582.52h17.08c4.21,0,7.52,1.16,9.62,3.26a8.43,8.43,0,0,1,2.52,6.25v.11a8.54,8.54,0,0,1-4.83,7.93c4.25,1.63,6.88,4.1,6.88,9v.11c0,6.72-5.46,10.09-13.77,10.09h-17.5Zm15.35,14.87c3.57,0,5.83-1.15,5.83-3.89v-.1c0-2.42-1.89-3.78-5.3-3.78h-8v7.77Zm2.15,14.82c3.58,0,5.73-1.26,5.73-4v-.11c0-2.47-1.84-4-6-4h-9.35v8.09Z"></path><polygon points="132.86 434.09 160.61 434.09 160.61 441.29 140.9 441.29 140.9 448.75 158.24 448.75 158.24 455.95 140.9 455.95 140.9 463.68 160.87 463.68 160.87 470.88 132.86 470.88 132.86 434.09"></polygon><path transform="translate(-416.88 -148.43)" d="M585,582.52h16.82c4.67,0,8.3,1.32,10.72,3.73a11.55,11.55,0,0,1,3.15,8.41v.11a11.42,11.42,0,0,1-7.88,11.4l9,13.14h-9.45l-7.89-11.77H593v11.77H585Zm16.29,17.87c3.94,0,6.2-2.1,6.2-5.2v-.11c0-3.47-2.41-5.25-6.36-5.25h-8v10.56Z"></path><path transform="translate(-416.88 -148.43)" d="M662.31,582.52h16.81c4.68,0,8.31,1.31,10.72,3.73a11.55,11.55,0,0,1,3.16,8.41v.11a11.44,11.44,0,0,1-7.88,11.4l9,13.14h-9.46l-7.88-11.77H670.4v11.77h-8.09Zm16.29,17.87c3.94,0,6.2-2.1,6.2-5.2v-.11c0-3.47-2.42-5.26-6.36-5.26h-8v10.57Z"></path><polygon points="283.43 434.09 311.18 434.09 311.18 441.29 291.47 441.29 291.47 448.75 308.81 448.75 308.81 455.95 291.47 455.95 291.47 463.68 311.44 463.68 311.44 470.88 283.43 470.88 283.43 434.09"></polygon><polygon points="317.59 434.09 325.05 434.09 342.29 456.74 342.29 434.09 350.28 434.09 350.28 470.88 343.39 470.88 325.58 447.49 325.58 470.88 317.59 470.88 317.59 434.09"></polygon><polygon points="358.06 434.09 385.8 434.09 385.8 441.29 366.1 441.29 366.1 448.75 383.44 448.75 383.44 455.95 366.1 455.95 366.1 463.68 386.07 463.68 386.07 470.88 358.06 470.88 358.06 434.09"></polygon><polygon points="390.43 434.09 399.1 434.09 406.72 459 414.97 433.99 421.91 433.99 430.16 459 437.78 434.09 446.24 434.09 433.68 471.14 426.64 471.14 418.34 447.07 410.04 471.14 402.99 471.14 390.43 434.09"></polygon><path style="fill:#999" transform="translate(-416.88 -148.43)" d="M637.07,604.85l-9,6.86L624.2,605l10.37-4.36-10.37-4.35,3.88-6.67,9,6.86-1.48-11.12h7.59l-1.48,11.12,9-6.86,3.89,6.67-10.37,4.35L654.57,605l-3.89,6.67-9-6.86L643.18,616h-7.59Z"></path></svg>