<svg width="120" height="24" fill="none" xmlns="http://www.w3.org/2000/svg"><path fill-rule="evenodd" clip-rule="evenodd" d="M99.81 23.614h-6.467a.16.16 0 01-.16-.16v-.612c0-.057.03-.11.079-.139l1.4-.822V1.771l-1.65-.856a.16.16 0 01-.087-.143V.161a.16.16 0 01.16-.161h5.31a.16.16 0 01.16.16v15.05l4.358-5.417-1.447-.839a.162.162 0 01-.08-.139v-.611a.16.16 0 01.161-.161h5.533a.16.16 0 01.161.16v.612a.16.16 0 01-.094.146l-2.219 1.015-3.057 3.65 4.714 8.258 1.567.815a.162.162 0 01.087.143v.611a.16.16 0 01-.161.16h-6.788a.16.16 0 01-.161-.16v-.611a.16.16 0 01.07-.133l1.067-.721-3.711-6.487v6.382l1.339.822a.16.16 0 01.076.137v.611a.16.16 0 01-.16.16z" fill="#111"/><path fill-rule="evenodd" clip-rule="evenodd" d="M111.63 15.446l7.846.19a.16.16 0 00.164-.161v-.87c0-2.162-.512-3.907-1.474-5.114-.967-1.213-2.375-1.866-4.123-1.866-3.753 0-6.499 3.255-6.499 8.01 0 2.854.664 4.948 1.844 6.33 1.183 1.386 2.864 2.035 4.848 2.035 1.284 0 2.33-.338 3.192-.938.859-.598 1.526-1.449 2.065-2.461a.16.16 0 00.018-.091l-.097-.997a.16.16 0 00-.16-.146h-.45a.16.16 0 00-.131.067c-1.209 1.687-2.357 2.475-3.794 2.475-1.419 0-2.432-.96-2.869-2.52v-.002c-.188-.657-.38-1.928-.38-3.462v-.479zm.034-1.331l4.083-.209a28.937 28.937 0 00-.159-2.624c-.095-.634-.259-1.2-.54-1.603-.274-.395-.66-.639-1.231-.639-.517 0-.907.248-1.21.652-.306.408-.517.969-.659 1.57a21.585 21.585 0 00-.284 2.853zm-29.425 1.046c1.47-.826 3.361-1.117 5.13-1.133v-2.575c0-.697-.186-1.284-.53-1.694-.339-.405-.844-.652-1.52-.654-1.12.124-2.135.913-2.76 1.935l-.798 2.205a.16.16 0 01-.151.106h-.708a.16.16 0 01-.16-.16V9.104a.16.16 0 01.073-.136c.825-.528 2.817-1.377 4.945-1.377 1.983 0 3.358.43 4.24 1.112a3.137 3.137 0 011.261 2.556v10.622l1.37.822a.161.161 0 01.078.138v.611a.16.16 0 01-.16.16h-4.923a.16.16 0 01-.161-.16V22.1c-.95 1.242-2.266 1.867-3.796 1.867-1.036 0-2.046-.247-2.797-.913-.756-.67-1.225-1.741-1.225-3.334 0-2.266 1.065-3.7 2.592-4.56zm3.006 6.523c1.001 0 1.78-.668 2.123-1.295v-5.036c-1.264.067-2.194.374-2.814.951-.643.599-.982 1.513-.982 2.838 0 1.005.153 1.646.428 2.03.265.369.664.527 1.24.512h.005z" fill="#111"/><path d="M69.88 20.387c.79 1.13 2.124 2.133 3.426 2.133.726 0 1.355-.209 1.798-.581.441-.37.711-.912.711-1.607 0-.397-.074-.721-.214-.996a2.09 2.09 0 00-.635-.725c-.574-.432-1.433-.762-2.578-1.15-1.007-.308-2.04-.76-2.823-1.534-.788-.78-1.31-1.876-1.31-3.444 0-1.473.539-2.699 1.446-3.556.906-.856 2.17-1.335 3.605-1.335 2.057 0 3.402.524 4.322 1.017a.16.16 0 01.085.142v4.15a.16.16 0 01-.16.16h-.644a.161.161 0 01-.151-.105l-.7-1.911c-.75-1.089-1.55-1.757-2.832-2.005-.753.003-1.31.204-1.676.527-.367.323-.56.784-.56 1.34 0 .765.31 1.284.82 1.691.519.415 1.241.713 2.063 1.02 1.385.434 2.572.934 3.412 1.732.85.807 1.33 1.906 1.33 3.502 0 2.726-2.034 5.116-5.406 5.116-2.15 0-3.977-.586-5.06-1.144a.16.16 0 01-.087-.143v-4.536a.16.16 0 01.16-.161h.708a.16.16 0 01.152.108l.797 2.295z" fill="#111"/><path fill-rule="evenodd" clip-rule="evenodd" d="M66.6 15.635l-7.846-.189v.479c0 1.534.192 2.805.38 3.462v.001c.437 1.562 1.45 2.52 2.87 2.52 1.436 0 2.584-.787 3.793-2.474a.16.16 0 01.131-.067h.45a.16.16 0 01.16.146l.097.997a.161.161 0 01-.018.091c-.539 1.012-1.205 1.863-2.065 2.461-.861.6-1.907.938-3.192.938-1.983 0-3.665-.649-4.848-2.035-1.18-1.382-1.844-3.476-1.844-6.33 0-4.755 2.746-8.01 6.499-8.01 1.749 0 3.156.653 4.123 1.866.963 1.207 1.475 2.952 1.475 5.115v.869a.16.16 0 01-.165.16zm-3.73-1.729l-4.082.209a21.75 21.75 0 01.284-2.854c.143-.6.353-1.161.66-1.57.302-.403.692-.65 1.21-.65.57 0 .957.243 1.23.638.28.403.445.969.54 1.603.09.742.15 1.902.159 2.624zm-29.878 7.975l-1.4.822a.16.16 0 00-.08.139v.611c0 .089.072.16.16.16h6.467a.16.16 0 00.161-.16v-.611a.16.16 0 00-.077-.137l-1.338-.822v-9.94a4.01 4.01 0 01.99-1.189c.436-.352.94-.588 1.455-.588.534 0 .903.145 1.14.403.24.26.372.664.372 1.238v10.077l-1.309.822a.16.16 0 00-.075.136v.611c0 .089.072.16.161.16h6.37a.16.16 0 00.16-.16v-.611a.161.161 0 00-.076-.137l-1.339-.822v-9.97a3.99 3.99 0 011-1.186c.432-.34.929-.56 1.445-.56.535 0 .913.144 1.158.403.248.261.387.665.387 1.237v10.076l-1.34.822a.16.16 0 00-.076.137v.611c0 .089.072.16.16.16h6.435a.16.16 0 00.161-.16v-.611a.16.16 0 00-.08-.139l-1.4-.822V11.324c0-2.159-1.756-3.667-3.828-3.667-.963 0-1.758.241-2.466.715-.63.42-1.183 1.02-1.723 1.78-.483-1.373-1.837-2.495-3.725-2.495-.98 0-1.77.258-2.457.74-.566.397-1.058.942-1.533 1.604V8.204a.16.16 0 00-.16-.161h-5.084a.16.16 0 00-.16.16v.612a.16.16 0 00.081.14l1.463.823V21.88zm-12.52-6.72c1.47-.826 3.361-1.117 5.13-1.133v-2.575c0-.697-.186-1.284-.53-1.694-.339-.405-.844-.652-1.52-.654-1.12.124-2.135.913-2.76 1.935l-.798 2.205a.161.161 0 01-.151.106h-.708a.16.16 0 01-.16-.16V9.104a.16.16 0 01.073-.136c.826-.528 2.818-1.377 4.945-1.377 1.983 0 3.358.43 4.24 1.112a3.137 3.137 0 011.261 2.556v10.622l1.37.822a.16.16 0 01.078.138v.611a.16.16 0 01-.16.16h-4.923a.16.16 0 01-.16-.16V22.1c-.95 1.242-2.267 1.867-3.797 1.867-1.036 0-2.046-.247-2.797-.913-.756-.67-1.225-1.741-1.225-3.334 0-2.266 1.065-3.7 2.592-4.56zm3.006 6.523c1.002 0 1.78-.668 2.124-1.295v-5.036c-1.265.067-2.194.374-2.814.951-.644.599-.983 1.513-.983 2.838 0 1.005.153 1.646.429 2.03.264.369.663.527 1.24.512h.004zM3.828 4.387l9.572 19.33a.16.16 0 00.144.09h1.77a.16.16 0 00.16-.16V2.9l2-.953a.161.161 0 00.092-.145v-.644a.16.16 0 00-.161-.16h-5.598a.16.16 0 00-.16.16v.644c0 .062.035.119.092.145l2.03.954v12.184L6.74 1.086a.16.16 0 00-.144-.089H.193a.16.16 0 00-.16.161v.644a.16.16 0 00.094.147l1.996.89V21.71l-2.03.954A.16.16 0 000 22.81v.643c0 .089.072.16.16.16h5.63a.16.16 0 00.162-.16v-.643a.16.16 0 00-.093-.146l-2.03-.954V4.387z" fill="#111"/></svg>
